<svg id="Layer_1" data-name="Layer 1" xmlns="http://www.w3.org/2000/svg" viewBox="0 0 139.4 120.26"><defs><style>.cls-1{fill:#0693e3;opacity:0.7;}.cls-2{fill:#e8b5d7;}.cls-3{fill:#f2c9e3;}.cls-4{fill:#fc5988;}.cls-5{fill:#ff83c1;}.cls-6{fill:#f44780;}.cls-7{fill:#73acff;}.cls-8{fill:#5390ea;}.cls-9{fill:#619bf7;}.cls-10{fill:#ffeef9;}.cls-11{fill:#fff;}.cls-12{fill:#e84697;}.cls-13{fill:#fec76e;}.cls-14{fill:#3f2a28;}.cls-15{fill:#2c1d1b;}.cls-16{fill:#352321;}.cls-17{fill:#ffb9a4;}.cls-18{fill:#472f2e;}.cls-19{fill:#ffc9b6;}.cls-20{fill:#353433;}.cls-21{fill:#ea397d;}.cls-22{fill:#563939;}.cls-23{fill:#f9b858;}</style></defs><path class="cls-1" d="M134.62,76.69,55.31,30.9,8.43,58.11,28,69.42c-5.12,2.37-6,3.37-7.17,6.22s1.05,6.71,7,3.38c2.71-1.52,6-3.21,8.79-4.61l51.07,29.48Z"/><path class="cls-1" d="M51.93,114.47l-35.18-21c-1.24-.74-1.09-2,.35-2.91l16.44-9.81a5.3,5.3,0,0,1,4.87-.21l35.18,21c1.25.74,1.09,2-.35,2.91L56.8,114.26A5.27,5.27,0,0,1,51.93,114.47Z"/><path class="cls-2" d="M72.58,100.26H72l-.17-.13-33-19.66a4.93,4.93,0,0,0-4.56.19L18.87,89.85a3.6,3.6,0,0,0-.55.42l-.56,0v1.15h0a1.42,1.42,0,0,0,.78,1.14l33,19.66a5,5,0,0,0,4.57-.19l15.4-9.2a1.89,1.89,0,0,0,1.11-1.57h0Z"/><path class="cls-3" d="M51.5,111.22l-33-19.66c-1.16-.7-1-1.92.33-2.73l15.41-9.19a4.93,4.93,0,0,1,4.56-.19l33,19.66c1.16.7,1,1.92-.33,2.73L56.07,111A5,5,0,0,1,51.5,111.22Z"/><polygon class="cls-4" points="70.11 100.2 48.16 113.3 43.65 110.61 65.6 97.51 70.11 100.2"/><polygon class="cls-5" points="70.11 99.29 48.16 112.39 43.65 109.7 65.6 96.6 70.11 99.29"/><polygon class="cls-6" points="70.11 99.29 70.11 100.2 48.16 113.3 48.16 112.39 70.11 99.29"/><polygon class="cls-4" points="43.65 109.7 43.65 110.61 48.16 113.3 48.16 112.39 43.65 109.7"/><polygon class="cls-4" points="63.65 96.17 41.7 109.27 37.2 106.58 59.15 93.48 63.65 96.17"/><polygon class="cls-7" points="63.65 95.26 41.7 108.36 37.2 105.67 59.15 92.58 63.65 95.26"/><polygon class="cls-8" points="63.65 95.26 63.65 96.17 41.7 109.27 41.7 108.36 63.65 95.26"/><polygon class="cls-9" points="37.2 105.67 37.2 106.58 41.7 109.27 41.7 108.36 37.2 105.67"/><polygon class="cls-4" points="57.2 92.01 35.25 105.11 30.75 102.42 52.7 89.32 57.2 92.01"/><polygon class="cls-5" points="57.2 91.1 35.25 104.2 30.75 101.51 52.7 88.41 57.2 91.1"/><polygon class="cls-6" points="57.2 91.1 57.2 92.01 35.25 105.11 35.25 104.2 57.2 91.1"/><polygon class="cls-4" points="30.75 101.51 30.75 102.42 35.25 105.11 35.25 104.2 30.75 101.51"/><polygon class="cls-4" points="50.75 87.98 28.8 101.08 24.3 98.39 46.25 85.3 50.75 87.98"/><polygon class="cls-7" points="50.75 87.07 28.8 100.17 24.3 97.48 46.25 84.39 50.75 87.07"/><polygon class="cls-8" points="50.75 87.07 50.75 87.98 28.8 101.08 28.8 100.17 50.75 87.07"/><polygon class="cls-9" points="24.3 97.48 24.3 98.39 28.8 101.08 28.8 100.17 24.3 97.48"/><polygon class="cls-4" points="44.31 83.96 22.36 97.05 17.85 94.36 39.8 81.27 44.31 83.96"/><polygon class="cls-5" points="44.31 83.05 22.36 96.14 17.85 93.45 39.8 80.36 44.31 83.05"/><polygon class="cls-6" points="44.31 83.05 44.31 83.96 22.36 97.05 22.36 96.14 44.31 83.05"/><polygon class="cls-4" points="17.85 93.45 17.85 94.36 22.36 97.05 22.36 96.14 17.85 93.45"/><polygon class="cls-10" points="132 75.22 88.08 100.57 11.05 56.09 54.97 30.74 132 75.22"/><polygon class="cls-3" points="11.05 56.09 11.05 57.36 88.08 101.83 88.08 100.57 11.05 56.09"/><polygon class="cls-2" points="132 75.22 132 76.48 88.08 101.83 88.08 100.57 132 75.22"/><polygon class="cls-7" points="61.45 38.22 24.82 59.37 18.52 55.73 55 34.66 61.45 38.22"/><path class="cls-11" d="M48.17,40.81l-1,.55-.77-.44,2.69-1.55.77.44-1,.55,3.25,1.87-.79.46Z"/><path class="cls-11" d="M50.12,38.81l.94-.55L56.15,40l-.83.48L54.16,40l-1.06.61.74.68-.8.46Zm2.43,1.3.74-.42-.45-.17c-.49-.17-1.06-.39-1.57-.58h0c.34.29.72.62,1,.9Z"/><path class="cls-11" d="M55.05,38.21l-2.85-.6.87-.51,1.06.26.9.23h0c-.17-.19-.31-.35-.42-.5l-.48-.6L55,36l1.09,1.67,3,.61-.87.5L57,38.51l-.92-.23,0,0c.17.18.29.35.43.51l.49.66-.84.48Z"/><path class="cls-4" d="M68.56,65.26c-1.66.84-3,1.66-5.93,3.37s-7.16,4-9.94,5.7c-.39.25-1.39,1.08-.69,1.52a2.76,2.76,0,0,0,3.17-.19c3-1.73,11.58-6.78,15.38-9.07C72.11,65.65,69.81,64.62,68.56,65.26Z"/><polygon class="cls-7" points="66.85 41.36 65.66 40.72 59.19 44.45 60.34 45.12 66.85 41.36"/><polygon class="cls-7" points="29.15 61.8 30.34 62.44 59.29 45.73 58.14 45.06 29.15 61.8"/><polygon class="cls-7" points="69.44 42.88 68.25 42.24 61.8 45.96 62.95 46.63 69.44 42.88"/><polygon class="cls-7" points="31.75 63.31 32.94 63.95 61.9 47.23 60.75 46.57 31.75 63.31"/><polygon class="cls-7" points="34.35 64.77 35.54 65.41 64.46 48.71 63.31 48.05 34.35 64.77"/><polygon class="cls-7" points="72.04 44.33 70.85 43.69 64.36 47.44 65.51 48.1 72.04 44.33"/><polygon class="cls-7" points="36.95 66.28 38.13 66.92 67.06 50.21 65.91 49.55 36.95 66.28"/><polygon class="cls-7" points="74.64 45.84 73.45 45.2 66.97 48.94 68.12 49.61 74.64 45.84"/><polygon class="cls-7" points="77.24 47.3 76.05 46.66 69.53 50.42 70.67 51.08 77.24 47.3"/><polygon class="cls-7" points="39.54 67.73 40.73 68.37 69.62 51.69 68.47 51.03 39.54 67.73"/><polygon class="cls-7" points="79.83 48.81 78.65 48.17 72.14 51.93 73.29 52.59 79.83 48.81"/><polygon class="cls-7" points="42.14 69.25 43.33 69.89 72.23 53.2 71.08 52.53 42.14 69.25"/><polygon class="cls-7" points="44.74 70.7 45.93 71.34 74.79 54.68 73.64 54.01 44.74 70.7"/><polygon class="cls-7" points="82.43 50.27 81.24 49.63 74.7 53.41 75.85 54.07 82.43 50.27"/><polygon class="cls-7" points="47.22 72.24 48.41 72.88 77.36 56.16 76.21 55.5 47.22 72.24"/><polygon class="cls-7" points="84.91 51.8 83.72 51.16 77.27 54.89 78.42 55.55 84.91 51.8"/><polygon class="cls-7" points="87.51 53.26 86.32 52.62 79.83 56.37 80.98 57.03 87.51 53.26"/><polygon class="cls-7" points="49.82 73.69 51.01 74.33 79.92 57.64 78.77 56.98 49.82 73.69"/><path class="cls-7" d="M70.23,66.25l12.3-7.1-1.15-.67-12,7Z"/><path class="cls-12" d="M69.13,65.56,52.41,75.21l1.19.64L70,66.4Z"/><polygon class="cls-7" points="90.11 54.77 88.92 54.13 82.44 57.87 83.59 58.54 90.11 54.77"/><polygon class="cls-7" points="92.7 56.23 91.52 55.59 85 59.35 86.15 60.02 92.7 56.23"/><polygon class="cls-7" points="55.01 76.66 56.2 77.31 85.09 60.62 83.94 59.96 55.01 76.66"/><polygon class="cls-7" points="95.13 57.77 93.94 57.13 87.54 60.82 88.69 61.49 95.13 57.77"/><polygon class="cls-7" points="57.43 78.21 58.62 78.85 87.64 62.09 86.49 61.43 57.43 78.21"/><polygon class="cls-7" points="120.98 72.64 119.8 72 113.35 75.72 114.5 76.39 120.98 72.64"/><polygon class="cls-7" points="83.29 93.08 84.48 93.72 113.44 76.99 112.3 76.33 83.29 93.08"/><polygon class="cls-7" points="85.89 94.53 87.08 95.17 116 78.47 114.86 77.81 85.89 94.53"/><polygon class="cls-7" points="123.58 74.1 122.39 73.45 115.91 77.2 117.06 77.86 123.58 74.1"/><polygon class="cls-13" points="84.39 88.67 82.83 89.56 70.42 82.4 71.97 81.5 84.39 88.67"/><polygon class="cls-13" points="87.73 86.74 86.18 87.64 77.13 82.41 78.68 81.52 87.73 86.74"/><polygon class="cls-13" points="91.19 84.74 89.64 85.64 82.85 81.72 84.4 80.82 91.19 84.74"/><polygon class="cls-13" points="94.42 82.88 92.87 83.77 82.19 77.61 83.73 76.71 94.42 82.88"/><polygon class="cls-13" points="97.76 80.95 96.21 81.84 91.6 79.19 93.16 78.29 97.76 80.95"/><polygon class="cls-13" points="101.22 78.95 99.67 79.85 90.58 74.6 92.13 73.7 101.22 78.95"/><polygon class="cls-13" points="104.45 77.09 102.89 77.98 96.11 74.06 97.66 73.17 104.45 77.09"/><polygon class="cls-13" points="107.68 75.22 106.13 76.12 91.19 67.49 92.74 66.6 107.68 75.22"/><polygon class="cls-13" points="111.02 73.29 109.47 74.19 98.69 67.97 100.24 67.07 111.02 73.29"/><polygon class="cls-13" points="114.48 71.3 112.93 72.19 108.32 69.53 109.87 68.64 114.48 71.3"/><polygon class="cls-14" points="116.65 70.04 80.25 91.06 80.72 91.33 117.12 70.31 116.65 70.04"/><polygon class="cls-4" points="68.01 76.74 66.82 76.1 60.37 79.82 61.52 80.48 68.01 76.74"/><polygon class="cls-4" points="70.66 78.29 69.47 77.65 63.03 81.38 64.18 82.04 70.66 78.29"/><path class="cls-15" d="M98.1,60.59a9.52,9.52,0,0,1,.34,2.28,1.66,1.66,0,0,1-.5,1.31.49.49,0,0,1-.54.16,4.17,4.17,0,0,1-.93,2.41,3.49,3.49,0,0,1-3,.51c-.67-.25-.23-1.48.44-2.69A14.76,14.76,0,0,0,95.65,61C97.27,60.75,98.1,60.59,98.1,60.59Z"/><path class="cls-16" d="M86,49.39c-.44-2.63-1-2.45-.95-4.89,0-1.2.43-3.94,1.3-9.63.45-3,1.15-3.45,2.08-5.31.1-.2,3.09,1.34,4.46,2.06a10.59,10.59,0,0,1,.79,5.68c-.2.94-3.29,7.33-4.36,8.51,2.66,2.62,2,5,1.21,11.57-.68.91-1.92.82-3.15.1C87.34,56.14,86.26,51.15,86,49.39Z"/><path class="cls-14" d="M91.21,37.19c-1.67-2-1.33-3.6-.53-6a60.28,60.28,0,0,1,7.09-.91c2.64,4.62,1.14,12.2-.78,16.73.9,2.19,1.6,2.38,2.27,5.27.58,2.5-1.09,5.3-1.23,8.41-1,.65-2.32,1-2.79-.23-1.64-3.91-2.9-7.83-1.78-12A57,57,0,0,1,91.21,37.19Z"/><path class="cls-16" d="M78.1,23.52a15.3,15.3,0,0,1,5.1-3.14s1-1.68,1.44-2.65a31.63,31.63,0,0,1,1.37-4,4.26,4.26,0,0,1,2.88-2.15.82.82,0,0,1,.94.19,2.57,2.57,0,0,1,.29,1.59c0,.81,0,1.62,0,2.43,0,1-1.53,3.32-1.81,3.74s-1.08,2.35-1.33,2.9a2.87,2.87,0,0,1-1.68,1.38C84.83,24,81,26,79,26.33,78.91,25.94,78.27,24.44,78.1,23.52Z"/><path class="cls-3" d="M89.83,12.87a5.74,5.74,0,0,1,3.63.12c-.06-.06,2.34,1.33,2.34,1.34,1.71.64,3.46,1.1,4.47,3.39.49,1.12-1.27,3.52-2,6.76a7.73,7.73,0,0,0,.18,4.5c.37.68,1.2,1.7-1.23,2.46-.71.23-4,1.5-5.93,1.14-.89-.16-5.17-2.53-3.86-3.44A.9.9,0,0,0,87.8,28a2.54,2.54,0,0,1-.43-1.77,7.55,7.55,0,0,0-.19-3.89C86,21,87,19.09,87.8,17,88.31,15.58,88.1,13.59,89.83,12.87Z"/><path class="cls-17" d="M90.24,12.49s0-.05,0-.07a5.09,5.09,0,0,0,3.19-1,14.24,14.24,0,0,0,1.29,2.72c-.38,0-1.12,1.06-1.74,2.15-.26.46-1.4,1.66-2.11,1.38-1.1-.43-.55-1.31-.58-2.54C90.26,14.23,90.24,13.36,90.24,12.49Z"/><path class="cls-6" d="M89.44,21.45a18.59,18.59,0,0,1,.68-2.52h0a7.31,7.31,0,0,0-.33-1.29l1.08-.42.64.76A2.66,2.66,0,0,1,90.72,19h0c0,1.11.06,3.13.09,5,0,2.93,0,5,0,5a6.69,6.69,0,0,1-1.39,1.43,7.11,7.11,0,0,1-.68-2S89.13,23.13,89.44,21.45Z"/><path class="cls-11" d="M95.56,14.13A14.43,14.43,0,0,0,93,15.54c-1,.84-1.49,1.06-2,1.55,0-.12-.18-2.4-.18-2.4s-.85.1-.84.12a2.81,2.81,0,0,0-.68,1.37,4.69,4.69,0,0,0,.15,2l1.41-.85,1,1.71a35,35,0,0,0,2.73-2.59A4.77,4.77,0,0,0,95.56,14.13Z"/><path class="cls-18" d="M90.11,12.86a2.59,2.59,0,0,0-2.41,1.68,17.52,17.52,0,0,0-1.39,6.85c0,2,.42,4.63.08,6.06-.29,1.23-1.92,5.76-1.92,5.76a5.92,5.92,0,0,0,.73,2.59,2,2,0,0,0,1.62.87s1-5.62,1.11-6.5.44-5.56.34-7a37.74,37.74,0,0,1,1-7,14.18,14.18,0,0,1,2.21-3.13Z"/><path class="cls-14" d="M90.44,14.32a8.42,8.42,0,0,0-1,1.79,21.79,21.79,0,0,0-.72,4.81c-.13,1.38-.42,2.76-.42,2.76a14,14,0,0,1-.62-2.52c-.09-1-.23-1.8-.23-1.8l.72-.55-.66-1.59s1.73-3.79,2.47-4S90.44,14.32,90.44,14.32Z"/><path class="cls-18" d="M94.79,13.66a16,16,0,0,0-2.68,6.49,42.75,42.75,0,0,0,0,10.33c.28,3.39.54,8.22.54,8.22a19,19,0,0,0,5.26.15,4,4,0,0,0,2.73-2.4,31.12,31.12,0,0,0-1.72-9.13c-.56-1.65-.2-5.22.47-7.27a6,6,0,0,0-1.21-4.77C97.48,14.52,95.77,14.2,94.79,13.66Z"/><path class="cls-14" d="M94.15,13.12a2.09,2.09,0,0,1,1.63,1,7.31,7.31,0,0,0-.93,2.24,11.53,11.53,0,0,0-.14,2.46l-1.34.59.78,1.38-2.31,3A20.92,20.92,0,0,1,92.41,17,12.58,12.58,0,0,1,94.15,13.12Z"/><path class="cls-19" d="M88.21,8.26a3.47,3.47,0,0,1,4.2-.62,2.15,2.15,0,0,1,.82.43c.83.74.74,2.06.49,3-.37,1.47-2.46,4.85-4.4,3.59a5.52,5.52,0,0,1-1.86-3.51A3.74,3.74,0,0,1,88.21,8.26Z"/><path class="cls-15" d="M86.87,6.1c.65-.87,2.29-1.91,3.38-1.3a1.09,1.09,0,0,1,.55,1A3.91,3.91,0,0,1,94.21,7.2a5.54,5.54,0,0,1-.46,4.94A7.17,7.17,0,0,1,91.6,8.85a4.53,4.53,0,0,1-4,0A1.83,1.83,0,0,1,86.87,6.1Z"/><path class="cls-19" d="M91.94,10.38s.59-1,1.13-.26a1,1,0,0,1-.38,1.61Z"/><path class="cls-15" d="M90.26,56.82a9.45,9.45,0,0,0,.27,1.26,3.55,3.55,0,0,1,0,1.55.92.92,0,0,1-.74.51,2.36,2.36,0,0,1-1,0,7.57,7.57,0,0,1-1.27,1.17,5.93,5.93,0,0,1-2.73.84c-.69-.11-1.06-.65-1-1a4.29,4.29,0,0,1,1.54-1.74A13.57,13.57,0,0,0,87,57.88a8.32,8.32,0,0,0,.85-1.11Z"/><polygon class="cls-15" points="80.86 59.26 69.22 52.54 83.18 13.88 94.82 20.6 80.86 59.26"/><polygon class="cls-15" points="91.39 21.66 94.82 20.6 80.86 59.26 77.42 60.32 91.39 21.66"/><polygon class="cls-20" points="83.18 13.88 79.75 14.94 91.39 21.66 94.82 20.6 83.18 13.88"/><polygon class="cls-4" points="83.81 12.14 80.39 13.19 92.03 19.91 95.45 18.86 83.81 12.14"/><polygon class="cls-6" points="91.39 21.66 79.75 14.94 80.39 13.19 92.03 19.91 91.39 21.66"/><polygon class="cls-21" points="95.45 18.86 92.03 19.91 91.39 21.66 94.82 20.6 95.45 18.86"/><path class="cls-6" d="M72.15,63.75c-.64-.13-3.73-1.28-4.14-.72-.38,1.17-.63,1.74-.87,2.61-.32,1.17,1.89,1.58,3,1.14,1.33-.52,1.47-1.25,2.25-2.45A.43.43,0,0,0,72.15,63.75Z"/><path class="cls-14" d="M68.62,58.7A19,19,0,0,1,68,63c.31,1.17,2.77,2.08,4.14,1.62a50.29,50.29,0,0,1,3.16-4.33A45,45,0,0,0,68.62,58.7Z"/><path class="cls-22" d="M74,61.14l3.39-.82L65.78,53.6s1.83,4.43,2.9,5.58a8.27,8.27,0,0,0,2.69,1.76A5.47,5.47,0,0,0,74,61.14Z"/><path class="cls-14" d="M77.42,60.32a26.12,26.12,0,0,1-6.73-2.91,25.86,25.86,0,0,1-4.91-3.81l14-38.66,11.64,6.72Z"/><polygon class="cls-6" points="85.8 22.42 74.65 53.68 73.87 53.23 85.01 21.97 85.8 22.42"/><polygon class="cls-6" points="87.62 23.48 76.48 54.74 75.7 54.28 86.84 23.02 87.62 23.48"/><polygon class="cls-6" points="81.33 26.56 73.62 48.02 71.1 46.57 78.81 25.11 81.33 26.56"/><path class="cls-16" d="M98.13,15.24c1.54.49,2.45.91,3.17,3.61.68,2.54-.27,3.43,0,5.11a11.81,11.81,0,0,1-.06,3.35c-.06,1.31-.43,1.44-1,1.75s0,.73-3.28,1.69a6,6,0,0,1-3.43.13l-.67-2.69s-.4-.05,1.2-1.13a6.2,6.2,0,0,1,3-1.24A32.09,32.09,0,0,0,96.27,22C95.74,20.15,97,15.55,98.13,15.24Z"/><path class="cls-19" d="M92.87,28.19s.84-.13,1.11,1a1.67,1.67,0,0,1-.44,1.71,2.75,2.75,0,0,0-1.56.24c-1.1.56-2.47,1.76-3.4,2.05C87.24,33.58,87,32.73,87,32s.72-1.24,1.35-1.59,1.1-.71.91-.87-.88.09-1.32-.21-.2-.62.63-.56c.43,0,.66-.22,1.47-.21.64,0,.78.36,1,.29C91.77,28.58,92.47,28.39,92.87,28.19Z"/><path class="cls-19" d="M77.54,20.59a4.2,4.2,0,0,0-1.4,1.91c-.2.67-.31,1.85.91,1.9a1.26,1.26,0,0,0,1.18-1.9C77.91,21.72,77.54,20.59,77.54,20.59Z"/><path class="cls-15" d="M23.63,76.19c.27-.82,1.23-3.23,1.59-4.09.21-.51,2.12-.76,2.12-.69,0,.26,0,1,0,1.32a1.8,1.8,0,0,1-.51,1.49,8.47,8.47,0,0,1-.71,2.62c-.47,1.15-1.35,1.68-2,1.52S23.24,77.42,23.63,76.19Z"/><path class="cls-15" d="M37.56,66.4c.45.49.94,1,1.4,1.52.62.65,1.34,1.34,2,1.94s.88,1.61-.46,1.53c-2.17-.12-2.68-1-3.68-1.79-.14-.11-.37.15-.92-.08s-.78-.39-.78-1.08a5.66,5.66,0,0,1,.27-1.8l0,0C35.28,66.49,37,65.75,37.56,66.4Z"/><path class="cls-23" d="M38,56.51a15,15,0,0,1,.07-5.23c.53-2.92-.06-7.48-1.21-9.6A9.07,9.07,0,0,0,35,39.27c-1.86,1.52-8.28,1.26-8.33,1.31a9.19,9.19,0,0,0-1.87,3.09,12.06,12.06,0,0,0-.08,8.6c.47,1.35,1.71,3.81,1.4,5.55-.28,1.58-1,3.62-1.25,5.22-.51,2.95.44,5.92.4,9.06a1.45,1.45,0,0,0,2.12,0s2.24-5.77,2.39-8.49c.07-1.25-.64-4.81-.52-5.56.34-2.08.81-2.55,1.42-5,.67-2.64,1-4.7,1-4.73.63,4,2.1,5.53,2.14,7.5,0,.73-.49,2.91.14,4.77.75,2.27.75,4.16,1.44,6.27.62.71,2.05.44,2.15-.23C37.52,64.33,39,59.48,38,56.51Z"/><path class="cls-17" d="M27.63,27.82a3.47,3.47,0,0,0,1.55.93c.7.19,2.2,2.49,2.67,1.81a14.34,14.34,0,0,0,.43-2.33,4.43,4.43,0,0,1-.7-1.43c0-.3-.36-.58-.31-.89s.17-.86.21-1.29a7.86,7.86,0,0,0-1.89-1c-.4-.09-.94-1.2-1.31-1.4a7,7,0,0,1-.17,2.84,3.47,3.47,0,0,1-.67,1.55C27.6,26.68,27.46,27.66,27.63,27.82Z"/><path class="cls-11" d="M35.92,40.29c-.63-1.23-1.77-1.87-2.15-3.23a7.8,7.8,0,0,1,.45-4.29.24.24,0,0,0-.22-.3c-2.54-.1-4.79.92-7.2,1.54l0,0-.13-.1c-.07,0-.17,0-.12.12a6.22,6.22,0,0,1,1.42,2.87c-.05,1.52-2.4,4.69-2.56,5.39,1.08,1.2,4.11,2.09,6.72,1.2C34,43,35.92,41.62,35.92,40.29Z"/><path class="cls-23" d="M37.08,30a32.88,32.88,0,0,0-2.23-4.45c-1-1.34-3.37-.95-3.37-.95l1.35,5.91a33.42,33.42,0,0,1,2.66,3A12,12,0,0,0,37.08,30Z"/><path class="cls-11" d="M32,28a3.74,3.74,0,0,1-2.74.51c-1.68-.3,1,4.67,2.37,4S32,28,32,28Z"/><path class="cls-13" d="M34.48,28.23a15.13,15.13,0,0,0-2-2.77c0-.06-1.37.47-1.66.11a10.94,10.94,0,0,0,.66,2A8.31,8.31,0,0,1,32,31.62c-1.43-1.64-4.17-4.73-4.53-5A15.8,15.8,0,0,1,25.16,28a1.26,1.26,0,0,0-.45.86c0,.54.22,3.44.84,4.45a7.65,7.65,0,0,1,1.89,2.83c.39,1.57-1.45,4.25-2.53,6.27C26,43.28,28.11,45,30.32,45a8,8,0,0,0,2.18-.33,13.44,13.44,0,0,1,.33-2.88c.39.77,1,1.5,1.39,2.23a13.87,13.87,0,0,0,3.48-2.34c-.73-1.39-2.22-3.07-2.85-5.54-.44-1.7.61-4.2.69-4.83C35.72,30,34.86,28.93,34.48,28.23Z"/><path class="cls-23" d="M31.41,25.17a20.51,20.51,0,0,1,1.65,2.14,5.55,5.55,0,0,1-.86,1.18,4.4,4.4,0,0,1,1.36.92L32,31.62s-.44-3.26-.78-4.63a14.59,14.59,0,0,0-.53-1.82A2.62,2.62,0,0,1,31.41,25.17Z"/><path class="cls-23" d="M27.54,26.09a22.93,22.93,0,0,1,2.06,1.84A12.82,12.82,0,0,1,32,31.62l-3.1-1.17a3.05,3.05,0,0,1,.57-1.3c-1,0-3.13-1.09-3-1.87S27.54,26.09,27.54,26.09Z"/><path class="cls-15" d="M35,21.48c-.29-.24-.91-.43-1.14,0v0a5.53,5.53,0,0,0-2.13,1.93,1.68,1.68,0,0,0,.79,2c1.25.6,2.25-.75,2.12-1.69h.07a1.21,1.21,0,0,0,.87-1A1.61,1.61,0,0,0,35,21.48Z"/><path class="cls-19" d="M34.22,20.9a4.4,4.4,0,0,0-1-3,4.25,4.25,0,0,0-3.06-.7c-1.54.1-2.62,1.8-2.35,3.76s1.46,4.61,3.49,5C33.51,26.38,34.28,22.42,34.22,20.9Z"/><path class="cls-19" d="M29.64,21.59s-.65-1.06-1.12-.4,0,2,.56,1.95S29.64,21.59,29.64,21.59Z"/><path class="cls-9" d="M30,39l.43,1.17s-.81.38-1.47.65a7.15,7.15,0,0,1-1.89.51l-.22-1A31.43,31.43,0,0,0,30,39Z"/><path class="cls-15" d="M34.12,17A2.35,2.35,0,0,0,31,16.37c-1.12-1.18-3.37-.85-4.51.48a5.43,5.43,0,0,0-1.11,3.55c0,.66-.08,1.85.47,2.38a1.45,1.45,0,0,0-1,.59,1.71,1.71,0,0,0-.3,1.53c.18.64,1.13,1.43,1.73,1a1.39,1.39,0,0,0,2,.64,2.25,2.25,0,0,0,1-1.35,3.26,3.26,0,0,0,.06-1.33,1.78,1.78,0,0,0,.62-.84,3.14,3.14,0,0,0,.08-1.34,2.64,2.64,0,0,0,1.19-.49,2.84,2.84,0,0,0,1-1,2.53,2.53,0,0,0,2.17.56C35,19.5,35.11,18.12,34.12,17Z"/><path class="cls-11" d="M32,32.48a.34.34,0,0,0,.32.35.34.34,0,0,0,.3-.37.35.35,0,0,0-.33-.36A.34.34,0,0,0,32,32.48Z"/><path class="cls-11" d="M32,36.23a.34.34,0,0,0,.33.35.34.34,0,0,0,.3-.37.34.34,0,0,0-.33-.35A.34.34,0,0,0,32,36.23Z"/><path class="cls-11" d="M32.42,40.16a.35.35,0,0,0,.33.35.36.36,0,0,0,0-.72A.34.34,0,0,0,32.42,40.16Z"/><path class="cls-9" d="M35.51,37.94a7.86,7.86,0,0,1-1.11-.12,8.43,8.43,0,0,0,.35,1.06H36Z"/><path class="cls-6" d="M43,29.84l-4.07-2.38h0a1.87,1.87,0,0,0-2,.1l-6.11,3.53a7.17,7.17,0,0,0-3,5.7V50.62L32,53.08,34,49l5.82-5.37L41,32.86Z"/><path class="cls-4" d="M32,53.08V39.25a7.17,7.17,0,0,1,3-5.7L41.07,30c1.64-.95,3,.07,3,2.26V46.11Z"/><path class="cls-21" d="M42.29,47.13V34.89A12.24,12.24,0,0,0,41.77,32a4.38,4.38,0,0,1,1,2.55c.08,1.33,0,9.87,0,12.3Z"/><path class="cls-21" d="M34.49,51.61V39.37A21.78,21.78,0,0,1,35,35.86a13.19,13.19,0,0,0-1,3.75c-.08,1.42,0,9.89,0,12.3Z"/><path class="cls-19" d="M44.06,32.83a2.22,2.22,0,0,1,.68,1.59c0,.71-.17,1.6-1.39,1.75-.39,0-.84-.54-.25-1.51A18.88,18.88,0,0,0,44.06,32.83Z"/><path class="cls-23" d="M25.37,28s-1.52.49-1.87,1.42.12,3.12-.14,4.44a17.51,17.51,0,0,1-1,4c-.52,1,.08,1.32.53,2.07A8.86,8.86,0,0,0,25.77,42a8.17,8.17,0,0,0,2.64.65,1.38,1.38,0,0,1,.79-1.41,9,9,0,0,0-1.82-1.79c-.67-.58-2-1.62-2-1.62a13,13,0,0,0,1.35-2,8.46,8.46,0,0,0,1.06-3.23C27.87,30.79,27.49,29,25.37,28Z"/><path class="cls-19" d="M28.88,40.67a11.43,11.43,0,0,0,2.31-.47c.81-.31,1-.52,1.06-.29s-.16.47-.31.62c-.4.39-.6.55-.6.55a1.93,1.93,0,0,0,.41,1c1.36,1.15,1.55,1.24,1.13,2.18-.48,1.1-2.59-.35-3.23-.68a13.41,13.41,0,0,1-1.58-1A2.06,2.06,0,0,1,28.88,40.67Z"/></svg>