<?xml version="1.0" encoding="utf-8"?>
<!-- Generator: Adobe Illustrator 24.1.2, SVG Export Plug-In . SVG Version: 6.00 Build 0)  -->
<svg version="1.1"
	 id="Layer_1" text-rendering="geometricPrecision" shape-rendering="geometricPrecision" image-rendering="optimizeQuality"
	 xmlns="http://www.w3.org/2000/svg" xmlns:xlink="http://www.w3.org/1999/xlink" x="0px" y="0px" viewBox="0 0 5957.8 8192"
	 style="enable-background:new 0 0 5957.8 8192;" xml:space="preserve">
<style type="text/css">
	.st0{fill:#1282BA;}
	.st1{fill:#F0F0F0;}
	.st2{fill-rule:evenodd;clip-rule:evenodd;fill:url(#SVGID_1_);filter:url(#Adobe_OpacityMaskFilter);}
	.st3{mask:url(#c_1_);fill:url(#SVGID_2_);}
	.st4{fill:#0099CC;}
	.st5{fill:#FFFFFF;fill-opacity:0.2;}
	.st6{fill:#263138;fill-opacity:0.2;}
	.st7{fill:#263138;fill-opacity:0.102;}
	.st8{fill-rule:evenodd;clip-rule:evenodd;fill:url(#SVGID_3_);filter:url(#Adobe_OpacityMaskFilter_1_);}
	.st9{mask:url(#e_1_);fill:url(#SVGID_4_);}
</style>
<g>
	<path class="st0" d="M3723.6,45.2h-3165C251.3,45.2,0,296.5,0,603.8v7074.9c0,307.3,251.3,558.6,558.6,558.6h4840.6
		c307.3,0,558.6-251.3,558.6-558.6V2279.4l-1303.2-930.9L3723.6,45.2z"/>
	<path class="st1" d="M1489.5,4048.2v2699.8h2979V4048.2H1489.5z M2792.8,6375.5h-931V5910h931V6375.5z M2792.8,5630.8h-931v-465.6
		h931V5630.8z M2792.8,4885.9h-931v-465.4h931V4885.9z M4096,6375.5h-931V5910h931V6375.5z M4096,5630.8h-931v-465.6h931V5630.8z
		 M4096,4885.9h-931v-465.4h931V4885.9z"/>
	<defs>
		<filter id="Adobe_OpacityMaskFilter" filterUnits="userSpaceOnUse" x="3887.1" y="2116" width="2070.7" height="2070.4">
			<feColorMatrix  type="matrix" values="1 0 0 0 0  0 1 0 0 0  0 0 1 0 0  0 0 0 1 0"/>
		</filter>
	</defs>
	<mask maskUnits="userSpaceOnUse" x="3887.1" y="2116" width="2070.7" height="2070.4" id="c_1_">
		
			<linearGradient id="SVGID_1_" gradientUnits="userSpaceOnUse" x1="84041.8047" y1="75763.7109" x2="84041.8047" y2="-9174.4941" gradientTransform="matrix(2.457602e-02 0 0 -2.457602e-02 2857.0168 4147.8926)">
			<stop  offset="0" style="stop-color:#FFFFFF;stop-opacity:2.000000e-02"/>
			<stop  offset="1" style="stop-color:#FFFFFF;stop-opacity:0.2"/>
		</linearGradient>
		<path class="st2" d="M3883.4,2112.3h2078.1v2434.6H3883.4V2112.3z"/>
	</mask>
	
		<linearGradient id="SVGID_2_" gradientUnits="userSpaceOnUse" x1="84041.8047" y1="71813.3047" x2="84041.8047" y2="-5223.4941" gradientTransform="matrix(2.457602e-02 0 0 -2.457602e-02 2857.0168 4147.8926)">
		<stop  offset="0" style="stop-color:#263138"/>
		<stop  offset="1" style="stop-color:#263138"/>
	</linearGradient>
	<path class="st3" d="M3887.1,2116l2070.7,2070.4v-1907L3887.1,2116z"/>
	<path class="st4" d="M3723.6,45.2v1675.7c0,308.6,250,558.5,558.5,558.5h1675.7L3723.6,45.2z"/>
	<path class="st5" d="M558.6,45.2C251.3,45.2,0,296.5,0,603.8v46.5C0,343.1,251.3,91.8,558.6,91.8h3165V45.2L558.6,45.2L558.6,45.2z
		"/>
	<path class="st6" d="M5399.2,8190.8H558.6C251.3,8190.8,0,7939.3,0,7632.2v46.4c0,307.3,251.3,558.6,558.6,558.6h4840.6
		c307.3,0,558.6-251.3,558.6-558.6v-46.4C5957.8,7939.4,5706.5,8190.8,5399.2,8190.8z"/>
	<path class="st7" d="M4282.1,2279.4c-308.5,0-558.5-249.9-558.5-558.5v46.5c0,308.6,250,558.5,558.5,558.5h1675.7v-46.5H4282.1z"/>
	<defs>
		<filter id="Adobe_OpacityMaskFilter_1_" filterUnits="userSpaceOnUse" x="0" y="45.2" width="5957.8" height="8192">
			<feColorMatrix  type="matrix" values="1 0 0 0 0  0 1 0 0 0  0 0 1 0 0  0 0 0 1 0"/>
		</filter>
	</defs>
	<mask maskUnits="userSpaceOnUse" x="0" y="45.2" width="5957.8" height="8192" id="e_1_">
		
			<radialGradient id="SVGID_3_" cx="4959.3013" cy="272.0059" r="145870.4219" gradientTransform="matrix(2.457602e-02 0 0 -2.457602e-02 2857.0168 4147.8926)" gradientUnits="userSpaceOnUse">
			<stop  offset="0" style="stop-color:#FFFFFF;stop-opacity:0"/>
			<stop  offset="1" style="stop-color:#FFFFFF;stop-opacity:9.800000e-02"/>
		</radialGradient>
		<path class="st8" d="M-3.7,41.5h5965.2v8199.4H-3.7V41.5z"/>
	</mask>
	
		<radialGradient id="SVGID_4_" cx="-106555.3516" cy="156938.1094" r="166667" gradientTransform="matrix(2.457602e-02 0 0 -2.457602e-02 2857.0168 4147.8926)" gradientUnits="userSpaceOnUse">
		<stop  offset="0" style="stop-color:#FFFFFF"/>
		<stop  offset="1" style="stop-color:#FFFFFF"/>
	</radialGradient>
	<path class="st9" d="M3723.6,45.2h-3165C251.3,45.2,0,296.5,0,603.8v7074.8c0,307.3,251.3,558.6,558.6,558.6h4840.6
		c307.3,0,558.6-251.3,558.6-558.6V2279.4L3723.6,45.2z"/>
</g>
</svg>
